<svg width="777" height="180" viewBox="0 0 777 180" fill="none" xmlns="http://www.w3.org/2000/svg">
<path d="M0.270735 125.135C0.0901902 123.691 0.0901902 122.247 0.270735 120.802C2.79836 120.532 4.82948 120.216 6.36411 119.854C7.89873 119.493 9.20768 118.861 10.2909 117.959C11.3742 116.966 12.4123 115.521 13.4053 113.626C14.3983 111.64 15.5719 108.886 16.926 105.366L46.1741 30.3496C47.1671 29.9885 48.3407 29.7177 49.6948 29.5372C51.1391 29.3566 52.3578 29.2664 53.3508 29.2664L82.4636 106.584C83.7274 109.834 84.7655 112.407 85.5779 114.303C86.3904 116.108 87.2931 117.417 88.2861 118.23C89.2791 119.042 90.5429 119.629 92.0775 119.99C93.6122 120.261 95.7336 120.532 98.4417 120.802C98.6223 122.247 98.6223 123.691 98.4417 125.135C95.2822 125.135 92.0324 125.09 88.6923 125C85.3523 124.91 82.0122 124.865 78.6721 124.865C75.2418 124.865 71.7663 124.91 68.2457 125C64.8153 125.09 61.385 125.135 57.9547 125.135C57.6838 123.781 57.6838 122.337 57.9547 120.802C62.378 120.351 65.4472 119.945 67.1624 119.584C68.8776 119.132 69.7352 118.049 69.7352 116.334C69.7352 115.612 69.5998 114.799 69.329 113.897C69.0581 112.994 68.697 111.865 68.2457 110.511L60.5274 89.6584H30.0606L23.2901 108.345C22.6582 110.06 22.1617 111.504 21.8006 112.678C21.5298 113.761 21.3944 114.754 21.3944 115.657C21.3944 117.643 22.2971 118.907 24.1026 119.448C25.9983 119.9 29.0676 120.351 33.3104 120.802C33.4909 122.337 33.4909 123.781 33.3104 125.135C30.2411 125.135 27.217 125.09 24.238 125C21.259 124.91 18.2349 124.865 15.1656 124.865C12.638 124.865 10.2007 124.91 7.8536 125C5.50652 125.09 2.9789 125.135 0.270735 125.135ZM32.0917 83.9713H58.4963L45.2263 47.9527L32.0917 83.9713ZM185.335 125.948L125.078 46.8694V104.824C125.078 108.255 125.168 110.918 125.349 112.813C125.529 114.619 126.071 116.018 126.974 117.011C127.876 117.914 129.276 118.681 131.171 119.313C133.067 119.945 135.775 120.441 139.296 120.802C139.476 122.247 139.476 123.691 139.296 125.135C136.588 125.135 133.564 125.09 130.224 125C126.974 124.91 124.22 124.865 121.964 124.865C119.707 124.865 116.908 124.91 113.568 125C110.319 125.09 107.385 125.135 104.767 125.135C104.496 123.781 104.496 122.337 104.767 120.802C108.017 120.351 110.544 119.945 112.35 119.584C114.155 119.132 115.464 118.5 116.276 117.688C117.089 116.785 117.585 115.476 117.766 113.761C118.037 112.046 118.172 109.654 118.172 106.584V51.0671C118.172 47.4562 118.037 44.6126 117.766 42.5364C117.585 40.4601 116.999 38.9255 116.006 37.9325C115.103 36.8492 113.659 36.0819 111.673 35.6305C109.777 35.0889 107.114 34.6376 103.684 34.2765C103.593 32.9224 103.593 31.5232 103.684 30.0788C106.482 30.0788 109.461 30.1239 112.62 30.2142C115.78 30.3045 118.94 30.3496 122.099 30.3496C122.55 30.3496 123.769 30.3496 125.755 30.3496C127.831 30.3496 129.637 30.3045 131.171 30.2142L186.147 102.522V50.5255C186.147 47.0951 186.057 44.4321 185.876 42.5364C185.786 40.6406 185.244 39.2414 184.251 38.3387C182.356 36.3527 177.797 35.0889 170.575 34.5473C170.304 33.0126 170.304 31.5683 170.575 30.2142C172.29 30.2142 174.321 30.2593 176.669 30.3496C179.106 30.3496 181.453 30.3948 183.71 30.485C185.967 30.485 187.817 30.485 189.262 30.485C191.518 30.485 194.317 30.4399 197.657 30.3496C200.997 30.2593 203.976 30.2142 206.594 30.2142C206.774 31.5683 206.774 32.9675 206.594 34.4119C202.261 34.9535 199.146 35.5854 197.251 36.3076C195.355 36.9395 194.181 38.1582 193.73 39.9636C193.279 41.769 193.053 44.7029 193.053 48.7651V125.271C192.15 125.451 190.932 125.587 189.397 125.677C187.862 125.858 186.508 125.948 185.335 125.948ZM233.4 125.135C233.22 123.781 233.22 122.337 233.4 120.802C237.914 120.351 241.119 119.945 243.014 119.584C244.91 119.132 246.084 118.23 246.535 116.876C246.986 115.521 247.212 113.219 247.212 109.97V36.0368H237.463C232.678 36.0368 228.887 36.7138 226.088 38.0679C223.38 39.3317 221.169 41.2726 219.453 43.8904C217.828 46.5083 216.204 49.8484 214.579 53.9107C213.134 54.0912 211.69 54.0912 210.246 53.9107C210.787 49.5776 211.284 45.4251 211.735 41.4531C212.277 37.4811 212.728 33.6446 213.089 29.9434C218.957 30.3045 225.456 30.5302 232.588 30.6204C239.719 30.6204 247.122 30.6204 254.795 30.6204C262.558 30.6204 270.006 30.6204 277.137 30.6204C284.359 30.5302 290.859 30.3045 296.636 29.9434C296.997 33.5543 297.358 37.3908 297.719 41.4531C298.08 45.4251 298.532 49.5776 299.073 53.9107C297.539 54.0912 296.049 54.0912 294.605 53.9107C292.89 49.7581 291.175 46.3729 289.459 43.755C287.744 41.1371 285.533 39.1963 282.824 37.9325C280.207 36.6687 276.505 36.0368 271.721 36.0368H262.107V108.209C262.107 111.008 262.197 113.219 262.378 114.844C262.558 116.469 263.055 117.643 263.867 118.365C264.77 119.087 266.169 119.629 268.065 119.99C269.961 120.261 272.579 120.532 275.919 120.802C276.189 122.247 276.189 123.691 275.919 125.135C274.023 125.135 271.721 125.09 269.013 125C266.395 125 263.777 125 261.159 125C258.541 124.91 256.33 124.865 254.524 124.865C252.809 124.865 250.642 124.91 248.024 125C245.497 125 242.879 125 240.171 125C237.553 125.09 235.296 125.135 233.4 125.135ZM395.713 77.0655C395.713 86.8149 393.727 95.4359 389.755 102.928C385.783 110.421 380.186 116.334 372.964 120.667C365.742 124.91 357.211 127.031 347.372 127.031C337.622 127.031 329.272 124.955 322.321 120.802C315.37 116.65 309.999 110.918 306.208 103.605C302.507 96.2934 300.656 87.9884 300.656 78.6904C300.656 69.0312 302.642 60.4554 306.614 52.9628C310.586 45.3799 316.183 39.4671 323.405 35.2243C330.717 30.8913 339.247 28.7247 348.997 28.7247C358.656 28.7247 366.961 30.801 373.912 34.9535C380.863 39.106 386.234 44.8383 390.025 52.1503C393.817 59.3721 395.713 67.6772 395.713 77.0655ZM378.922 78.4196C378.922 72.913 378.38 67.5418 377.297 62.306C376.214 57.0702 374.453 52.3309 372.016 48.0881C369.669 43.8453 366.555 40.5052 362.673 38.0679C358.791 35.5403 354.052 34.2765 348.455 34.2765C342.768 34.2765 337.938 35.5403 333.966 38.0679C330.085 40.5955 326.925 43.9356 324.488 48.0881C322.141 52.2406 320.38 56.8896 319.207 62.0352C318.124 67.1807 317.582 72.4165 317.582 77.7425C317.582 82.9783 318.124 88.2141 319.207 93.4499C320.38 98.5954 322.186 103.29 324.623 107.532C327.061 111.775 330.265 115.205 334.237 117.823C338.299 120.351 343.174 121.615 348.861 121.615C354.458 121.615 359.152 120.396 362.944 117.959C366.825 115.521 369.94 112.272 372.287 108.209C374.634 104.057 376.304 99.4078 377.297 94.2623C378.38 89.1168 378.922 83.8359 378.922 78.4196ZM475.706 125.948L415.449 46.8694V104.824C415.449 108.255 415.54 110.918 415.72 112.813C415.901 114.619 416.442 116.018 417.345 117.011C418.248 117.914 419.647 118.681 421.543 119.313C423.438 119.945 426.147 120.441 429.667 120.802C429.848 122.247 429.848 123.691 429.667 125.135C426.959 125.135 423.935 125.09 420.595 125C417.345 124.91 414.592 124.865 412.335 124.865C410.078 124.865 407.28 124.91 403.94 125C400.69 125.09 397.756 125.135 395.138 125.135C394.867 123.781 394.867 122.337 395.138 120.802C398.388 120.351 400.916 119.945 402.721 119.584C404.526 119.132 405.835 118.5 406.648 117.688C407.46 116.785 407.957 115.476 408.137 113.761C408.408 112.046 408.544 109.654 408.544 106.584V51.0671C408.544 47.4562 408.408 44.6126 408.137 42.5364C407.957 40.4601 407.37 38.9255 406.377 37.9325C405.474 36.8492 404.03 36.0819 402.044 35.6305C400.148 35.0889 397.485 34.6376 394.055 34.2765C393.965 32.9224 393.965 31.5232 394.055 30.0788C396.853 30.0788 399.832 30.1239 402.992 30.2142C406.151 30.3045 409.311 30.3496 412.47 30.3496C412.922 30.3496 414.14 30.3496 416.126 30.3496C418.203 30.3496 420.008 30.3045 421.543 30.2142L476.519 102.522V50.5255C476.519 47.0951 476.428 44.4321 476.248 42.5364C476.157 40.6406 475.616 39.2414 474.623 38.3387C472.727 36.3527 468.168 35.0889 460.947 34.5473C460.676 33.0126 460.676 31.5683 460.947 30.2142C462.662 30.2142 464.693 30.2593 467.04 30.3496C469.477 30.3496 471.824 30.3948 474.081 30.485C476.338 30.485 478.189 30.485 479.633 30.485C481.89 30.485 484.688 30.4399 488.028 30.3496C491.368 30.2593 494.347 30.2142 496.965 30.2142C497.146 31.5683 497.146 32.9675 496.965 34.4119C492.632 34.9535 489.518 35.5854 487.622 36.3076C485.726 36.9395 484.553 38.1582 484.101 39.9636C483.65 41.769 483.424 44.7029 483.424 48.7651V125.271C482.522 125.451 481.303 125.587 479.768 125.677C478.234 125.858 476.88 125.948 475.706 125.948ZM531.49 45.2445V108.209C531.49 111.008 531.58 113.219 531.761 114.844C531.941 116.469 532.438 117.643 533.25 118.365C534.063 119.087 535.372 119.629 537.177 119.99C538.983 120.261 541.555 120.532 544.895 120.802C545.166 122.247 545.166 123.691 544.895 125.135C543.09 125.135 540.878 125.09 538.26 125C535.643 125 533.025 125 530.407 125C527.879 124.91 525.758 124.865 524.043 124.865C522.327 124.865 520.161 124.91 517.543 125C515.015 125 512.443 125 509.825 125C507.297 125.09 505.04 125.135 503.054 125.135C502.783 123.781 502.783 122.337 503.054 120.802C507.387 120.351 510.502 119.945 512.397 119.584C514.293 119.132 515.467 118.23 515.918 116.876C516.369 115.521 516.595 113.219 516.595 109.97V47.0048C516.595 43.2134 516.369 40.5052 515.918 38.8803C515.467 37.2554 514.293 36.2173 512.397 35.7659C510.502 35.2243 507.387 34.773 503.054 34.4119C502.874 33.0578 502.874 31.6134 503.054 30.0788C504.95 30.0788 507.207 30.1239 509.825 30.2142C512.533 30.2142 515.196 30.2593 517.814 30.3496C520.432 30.3496 522.598 30.3496 524.313 30.3496C526.029 30.3496 528.15 30.3496 530.678 30.3496C533.205 30.2593 535.778 30.2142 538.396 30.2142C541.014 30.1239 543.18 30.0788 544.895 30.0788C545.166 31.4329 545.166 32.8772 544.895 34.4119C540.653 34.773 537.583 35.1792 535.688 35.6305C533.792 36.0819 532.618 36.9846 532.167 38.3387C531.716 39.6928 531.49 41.9947 531.49 45.2445Z" fill="#FFF1D2"/>
<path d="M596.165 63.6527L592.345 64.4167L581.511 37.2607C581.14 36.2421 580.747 35.4781 580.33 34.9688C579.913 34.4132 579.358 33.9965 578.663 33.7187C578.015 33.4408 577.043 33.2325 575.746 33.0936C575.653 32.4454 575.653 31.7045 575.746 30.8711C577.089 30.8711 578.478 30.8942 579.913 30.9405C581.395 30.9868 582.853 31.01 584.289 31.01C585.631 31.01 587.09 30.9868 588.664 30.9405C590.239 30.8942 591.558 30.8711 592.623 30.8711C592.762 31.6119 592.762 32.3528 592.623 33.0936C591.049 33.1862 589.961 33.3482 589.359 33.5797C588.803 33.8113 588.525 34.2974 588.525 35.0383C588.525 35.4087 588.595 35.8717 588.734 36.4273C588.919 36.9829 589.081 37.4459 589.22 37.8164C589.359 38.1868 589.637 38.9276 590.053 40.0388C590.47 41.1501 590.956 42.4465 591.512 43.9282C592.114 45.3635 592.716 46.8684 593.318 48.4426C593.92 49.9706 594.475 51.3828 594.984 52.6792C595.54 53.9757 595.98 55.0175 596.304 55.8046C597.276 53.5821 598.434 50.8966 599.777 47.7481C601.166 44.5996 602.508 41.4047 603.805 38.1636C604.036 37.5154 604.222 36.9366 604.361 36.4273C604.546 35.8717 604.638 35.4318 604.638 35.1077C604.638 34.4595 604.337 33.9965 603.735 33.7187C603.134 33.4408 602.045 33.2325 600.471 33.0936C600.425 32.3528 600.425 31.6119 600.471 30.8711C601.675 30.8711 602.809 30.8942 603.874 30.9405C604.986 30.9868 606.305 31.01 607.833 31.01C608.528 31.01 609.176 31.01 609.778 31.01C610.426 30.9637 611.607 30.9174 613.32 30.8711C613.413 31.6582 613.413 32.3991 613.32 33.0936C611.375 33.2325 610.056 33.6723 609.361 34.4132C608.667 35.1077 607.995 36.1726 607.347 37.608L596.165 63.6527ZM639.116 64.6945C636.06 64.6945 634.139 63.1666 633.352 60.1107C630.064 63.2592 626.707 64.8334 623.281 64.8334C620.92 64.8334 618.905 64.1389 617.239 62.7499C615.618 61.3145 614.808 59.3467 614.808 56.8464C614.808 50.7345 621.035 46.8915 633.49 45.3172C633.49 44.206 633.49 43.0716 633.49 41.9141C633.537 40.7565 633.56 39.5295 633.56 38.2331C633.56 36.6125 632.958 35.3624 631.754 34.4826C630.597 33.5566 629.184 33.0936 627.518 33.0936C626.314 33.0936 625.295 33.2788 624.462 33.6492C624.462 34.7141 624.23 35.8022 623.767 36.9135C623.304 38.0247 622.656 38.9739 621.822 39.761C621.035 40.5019 620.063 40.8723 618.905 40.8723C617.887 40.8723 617.077 40.5945 616.475 40.0388C615.919 39.4369 615.641 38.7192 615.641 37.8858C615.641 36.7746 616.15 35.7328 617.169 34.7604C618.234 33.7418 619.577 32.8852 621.197 32.1907C622.818 31.4499 624.508 30.8711 626.267 30.4544C628.027 30.0377 629.601 29.8293 630.99 29.8293C632.703 29.8293 634.278 30.1534 635.713 30.8016C637.195 31.4036 638.375 32.3296 639.255 33.5797C640.181 34.7836 640.644 36.2884 640.644 38.0942C640.644 39.2054 640.621 40.6639 640.575 42.4697C640.528 44.2292 640.482 46.1275 640.436 48.1648C640.436 50.1558 640.413 52.0541 640.366 53.8599C640.32 55.6657 640.297 57.1242 640.297 58.2354C640.297 59.7171 640.945 60.4579 642.242 60.4579C643.075 60.4579 644.348 60.1801 646.061 59.6245C646.247 59.856 646.362 60.1107 646.409 60.3885C646.501 60.6663 646.571 60.9209 646.617 61.1524C645.46 62.4026 644.233 63.3055 642.936 63.8611C641.686 64.4167 640.413 64.6945 639.116 64.6945ZM633.352 58.2354L633.49 47.8175C629.231 48.3732 626.291 49.276 624.67 50.5262C623.096 51.7763 622.309 53.3737 622.309 55.3184C622.309 56.939 622.725 58.1891 623.559 59.0689C624.439 59.9023 625.527 60.319 626.823 60.319C627.656 60.319 628.583 60.1338 629.601 59.7634C630.666 59.393 631.916 58.8837 633.352 58.2354ZM670.381 64.0695C670.289 63.3286 670.289 62.6109 670.381 61.9164C671.817 61.8238 672.882 61.6849 673.576 61.4997C674.271 61.2682 674.734 60.8052 674.965 60.1107C675.197 59.4161 675.312 58.3049 675.312 56.7769V42.7475C675.312 39.9694 674.873 37.909 673.993 36.5662C673.159 35.1772 671.469 34.4826 668.923 34.4826C667.58 34.4826 666.284 34.7373 665.033 35.2466C663.783 35.7096 662.417 36.6125 660.936 37.9553V56.0824C660.936 57.8882 661.028 59.1846 661.213 59.9717C661.445 60.7589 661.908 61.2682 662.603 61.4997C663.297 61.6849 664.385 61.8238 665.867 61.9164C665.959 62.6109 665.959 63.3286 665.867 64.0695C664.57 64.0695 663.204 64.0463 661.769 64C660.38 63.9537 658.875 63.9305 657.255 63.9305C655.773 63.9305 654.315 63.9537 652.879 64C651.444 64.0463 650.032 64.0695 648.643 64.0695C648.504 63.3286 648.504 62.6109 648.643 61.9164C650.217 61.8238 651.374 61.6849 652.115 61.4997C652.856 61.2682 653.342 60.8052 653.574 60.1107C653.805 59.4161 653.921 58.3049 653.921 56.7769V41.2195C653.921 39.4138 653.828 38.071 653.643 37.1913C653.504 36.3116 653.064 35.7096 652.324 35.3855C651.629 35.0151 650.425 34.7141 648.712 34.4826C648.573 33.8344 648.573 33.2325 648.712 32.6769C652.694 31.8897 656.352 30.8248 659.686 29.482L660.866 29.8988V35.1077C662.996 33.163 665.08 31.7971 667.117 31.01C669.154 30.2229 671.099 29.8293 672.951 29.8293C676.007 29.8293 678.345 30.7322 679.966 32.538C681.586 34.3437 682.397 36.9366 682.397 40.3167V56.0824C682.397 57.8882 682.489 59.1846 682.674 59.9717C682.906 60.7589 683.369 61.2682 684.063 61.4997C684.758 61.6849 685.869 61.8238 687.397 61.9164C687.49 62.6109 687.49 63.3286 687.397 64.0695C686.008 64.0695 684.642 64.0463 683.299 64C682.003 63.9537 680.475 63.9305 678.716 63.9305C677.002 63.9305 675.498 63.9537 674.201 64C672.951 64.0463 671.678 64.0695 670.381 64.0695ZM732.768 64.9029L731.657 64.4167L731.379 59.6245C729.759 61.384 728.092 62.7036 726.379 63.5833C724.712 64.4167 722.86 64.8334 720.822 64.8334C717.952 64.8334 715.428 64.0695 713.252 62.5415C711.122 60.9672 709.478 58.93 708.321 56.4297C707.163 53.9294 706.585 51.2207 706.585 48.3037C706.585 44.9237 707.302 41.8446 708.738 39.0665C710.219 36.2884 712.28 34.0659 714.919 32.3991C717.604 30.6859 720.73 29.8293 724.295 29.8293C725.36 29.8293 726.471 29.9219 727.629 30.1071C728.786 30.246 729.99 30.5007 731.24 30.8711V21.9812C731.24 20.5458 731.101 19.4809 730.823 18.7863C730.546 18.0455 729.99 17.5362 729.157 17.2584C728.369 16.9343 727.166 16.7028 725.545 16.5639C725.406 15.9619 725.406 15.3369 725.545 14.6886C727.397 14.4571 729.296 14.1099 731.24 13.6468C733.185 13.1375 735.176 12.443 737.213 11.5633L738.394 11.98C738.348 12.9986 738.301 14.1562 738.255 15.4526C738.255 16.7491 738.255 18.1613 738.255 19.6892V54.1377C738.255 55.8972 738.324 57.2168 738.463 58.0965C738.602 58.9763 739.019 59.6013 739.713 59.9717C740.408 60.2959 741.589 60.5968 743.255 60.8746C743.394 61.4766 743.394 62.1016 743.255 62.7499C741.403 63.0277 739.598 63.3286 737.838 63.6527C736.079 63.9768 734.389 64.3936 732.768 64.9029ZM731.31 36.7746C729.319 34.0428 726.703 32.6769 723.461 32.6769C720.267 32.6769 717.859 33.8576 716.238 36.2189C714.618 38.534 713.808 41.752 713.808 45.8729C713.808 48.2806 714.132 50.5956 714.78 52.8181C715.428 55.0406 716.493 56.8695 717.975 58.3049C719.456 59.7402 721.424 60.4579 723.878 60.4579C726.98 60.4579 729.458 59.1152 731.31 56.4297V36.7746ZM759.984 64.8334C756.697 64.8334 753.919 64.0695 751.65 62.5415C749.381 61.0135 747.645 58.9763 746.441 56.4297C745.284 53.8368 744.705 50.9892 744.705 47.887C744.705 44.6922 745.307 41.7289 746.511 38.9971C747.761 36.2652 749.566 34.0659 751.928 32.3991C754.289 30.6859 757.16 29.8293 760.54 29.8293C764.615 29.8293 767.786 31.0563 770.055 33.5103C772.37 35.918 773.528 39.0434 773.528 42.8864C773.528 43.3494 773.504 43.7661 773.458 44.1365C773.458 44.4607 773.435 44.7385 773.389 44.97L751.511 44.7616C751.511 44.9468 751.511 45.1089 751.511 45.2478C751.511 49.7854 752.553 53.3506 754.637 55.9435C756.72 58.5364 759.637 59.8328 763.388 59.8328C766.536 59.8328 769.638 58.8142 772.694 56.7769C773.157 57.3325 773.504 57.865 773.736 58.3743C769.8 62.6804 765.216 64.8334 759.984 64.8334ZM751.719 42.1919L766.096 41.9141C766.142 41.8215 766.166 41.7057 766.166 41.5668C766.166 41.3816 766.166 41.2658 766.166 41.2195C766.166 38.7192 765.61 36.6357 764.499 34.9688C763.434 33.3019 761.836 32.4685 759.707 32.4685C757.716 32.4685 755.979 33.2788 754.498 34.8993C753.016 36.5199 752.09 38.9508 751.719 42.1919ZM606.375 126.042C601.143 126.042 596.582 125.069 592.693 123.125C588.803 121.18 585.77 118.356 583.594 114.652C581.464 110.947 580.399 106.502 580.399 101.317C580.399 96.1309 581.464 91.6164 583.594 87.7734C585.77 83.9303 588.803 80.9439 592.693 78.814C596.628 76.6841 601.235 75.6192 606.514 75.6192C608.273 75.6192 610.148 75.7581 612.139 76.0359C614.13 76.2674 615.843 76.5915 617.279 77.0082C618.158 77.2397 618.969 77.4481 619.71 77.6333C620.45 77.8185 621.191 77.9111 621.932 77.9111C622.488 77.9111 623.043 77.8417 623.599 77.7028C623.692 79.74 623.784 81.8468 623.877 84.0229C623.969 86.1991 624.108 88.4679 624.293 90.8293C623.321 90.9682 622.511 91.0145 621.863 90.9682C620.937 86.7084 619.247 83.5599 616.793 81.5227C614.339 79.4391 611.074 78.3973 607 78.3973C603.759 78.3973 600.981 78.9992 598.665 80.2031C596.397 81.3606 594.545 82.958 593.109 84.9953C591.72 87.0326 590.702 89.394 590.053 92.0795C589.405 94.7187 589.081 97.5431 589.081 100.553C589.081 104.951 589.752 108.841 591.095 112.221C592.438 115.601 594.475 118.263 597.207 120.208C599.985 122.106 603.458 123.055 607.625 123.055C608.921 123.055 610.357 122.94 611.931 122.708C613.505 122.43 615.01 122.014 616.445 121.458V112.707C616.445 111.272 616.376 110.16 616.237 109.373C616.144 108.54 615.843 107.938 615.334 107.567C614.871 107.197 614.107 106.942 613.042 106.803C612.023 106.618 610.611 106.456 608.806 106.317C608.667 105.576 608.667 104.836 608.806 104.095C609.778 104.095 610.959 104.118 612.348 104.164C613.737 104.164 615.126 104.187 616.515 104.234C617.95 104.234 619.131 104.234 620.057 104.234C621.492 104.234 623.136 104.211 624.988 104.164C626.886 104.118 628.507 104.095 629.85 104.095C629.942 104.789 629.942 105.507 629.85 106.248C627.951 106.479 626.585 106.711 625.752 106.942C624.919 107.174 624.409 107.637 624.224 108.331C624.039 109.026 623.946 110.207 623.946 111.873V114.096C623.946 116.272 623.992 118.101 624.085 119.583C624.224 121.064 624.34 122.129 624.432 122.778C617.996 124.954 611.977 126.042 606.375 126.042ZM649.65 125.833C646.362 125.833 643.584 125.069 641.315 123.541C639.047 122.014 637.31 119.976 636.106 117.43C634.949 114.837 634.37 111.989 634.37 108.887C634.37 105.692 634.972 102.729 636.176 99.9971C637.426 97.2652 639.232 95.0659 641.593 93.3991C643.955 91.6859 646.825 90.8293 650.205 90.8293C654.28 90.8293 657.451 92.0563 659.72 94.5103C662.035 96.918 663.193 100.043 663.193 103.886C663.193 104.349 663.17 104.766 663.123 105.137C663.123 105.461 663.1 105.738 663.054 105.97L641.176 105.762C641.176 105.947 641.176 106.109 641.176 106.248C641.176 110.785 642.218 114.351 644.302 116.943C646.385 119.536 649.302 120.833 653.053 120.833C656.201 120.833 659.304 119.814 662.359 117.777C662.822 118.333 663.17 118.865 663.401 119.374C659.466 123.68 654.882 125.833 649.65 125.833ZM641.385 103.192L655.761 102.914C655.808 102.821 655.831 102.706 655.831 102.567C655.831 102.382 655.831 102.266 655.831 102.22C655.831 99.7192 655.275 97.6357 654.164 95.9688C653.099 94.3019 651.502 93.4685 649.372 93.4685C647.381 93.4685 645.645 94.2788 644.163 95.8993C642.681 97.5199 641.755 99.9508 641.385 103.192ZM685.423 125.069C684.126 125.069 682.783 125.046 681.394 125C680.005 124.954 678.501 124.931 676.88 124.931C675.398 124.931 673.893 124.954 672.366 125C670.884 125.046 669.449 125.069 668.059 125.069C667.921 124.329 667.921 123.611 668.059 122.916C669.634 122.824 670.791 122.685 671.532 122.5C672.273 122.268 672.759 121.805 672.991 121.111C673.222 120.416 673.338 119.305 673.338 117.777V102.22C673.338 100.414 673.268 99.071 673.129 98.1913C672.991 97.3116 672.551 96.7096 671.81 96.3855C671.115 96.0151 669.888 95.7141 668.129 95.4826C667.99 94.8344 667.99 94.2325 668.129 93.6769C670.166 93.3064 672.111 92.8434 673.963 92.2878C675.815 91.7322 677.598 91.1303 679.311 90.482L680.491 90.8988C680.445 92.3341 680.399 93.6769 680.353 94.927C680.353 96.1772 680.353 97.3579 680.353 98.4691V117.082C680.353 118.888 680.445 120.185 680.63 120.972C680.862 121.759 681.325 122.268 682.019 122.5C682.76 122.685 683.895 122.824 685.423 122.916C685.562 123.611 685.562 124.329 685.423 125.069ZM671.532 78.6751C671.532 77.3323 671.995 76.198 672.921 75.2719C673.893 74.3459 675.051 73.8829 676.394 73.8829C677.69 73.8829 678.801 74.3459 679.727 75.2719C680.7 76.198 681.186 77.3092 681.186 78.6056C681.186 79.8095 680.723 80.9207 679.797 81.9394C678.871 82.9117 677.69 83.3979 676.255 83.3979C674.958 83.3979 673.847 82.9349 672.921 82.0088C671.995 81.0828 671.532 79.9715 671.532 78.6751ZM699.442 90.482L700.622 90.8988C700.576 92.1952 700.53 93.4685 700.484 94.7187C700.484 95.9688 700.484 97.2421 700.484 98.5385C700.484 98.909 700.484 99.835 700.484 101.317C700.484 102.798 700.484 104.535 700.484 106.526C700.53 108.517 700.553 110.554 700.553 112.637C700.599 114.675 700.622 116.504 700.622 118.124C700.622 119.698 700.622 120.81 700.622 121.458C700.622 124.606 700.484 127.199 700.206 129.237C699.928 131.274 699.488 132.941 698.886 134.237C698.284 135.58 697.451 136.807 696.386 137.918C693.423 141.113 690.181 142.71 686.662 142.71C684.81 142.71 683.514 142.317 682.773 141.53C681.986 140.789 681.592 140.002 681.592 139.168C681.592 138.335 681.917 137.594 682.565 136.946C683.213 136.298 684.162 135.974 685.412 135.974C686.431 135.974 687.38 136.228 688.26 136.737C689.186 137.293 689.927 138.127 690.482 139.238C691.269 138.867 691.871 138.173 692.288 137.154C692.705 136.182 692.983 135.047 693.122 133.751C693.307 132.455 693.423 131.204 693.469 130.001C693.515 128.797 693.538 127.801 693.538 127.014C693.538 126.042 693.538 124.699 693.538 122.986C693.538 121.273 693.538 119.397 693.538 117.36C693.538 115.277 693.515 113.239 693.469 111.248C693.469 109.211 693.469 107.382 693.469 105.762C693.469 104.141 693.469 102.96 693.469 102.22C693.469 100.414 693.376 99.071 693.191 98.1913C693.052 97.3116 692.612 96.7096 691.871 96.3855C691.177 96.0151 689.973 95.7141 688.26 95.4826C688.121 94.8344 688.121 94.2325 688.26 93.6769C690.205 93.3064 692.08 92.8666 693.886 92.3573C695.738 91.8479 697.59 91.2229 699.442 90.482ZM691.663 78.6751C691.663 77.3323 692.126 76.198 693.052 75.2719C694.024 74.3459 695.182 73.8829 696.525 73.8829C697.821 73.8829 698.932 74.3459 699.858 75.2719C700.831 76.198 701.317 77.3092 701.317 78.6056C701.317 79.8095 700.854 80.9207 699.928 81.9394C699.002 82.9117 697.821 83.3979 696.386 83.3979C695.089 83.3979 693.978 82.9349 693.052 82.0088C692.126 81.0828 691.663 79.9715 691.663 78.6751ZM727.308 125.069C727.215 124.329 727.215 123.611 727.308 122.916C728.743 122.824 729.808 122.685 730.503 122.5C731.197 122.268 731.66 121.805 731.892 121.111C732.123 120.416 732.239 119.305 732.239 117.777V103.747C732.239 100.969 731.799 98.909 730.92 97.5662C730.086 96.1772 728.396 95.4826 725.849 95.4826C724.507 95.4826 723.21 95.7373 721.96 96.2466C720.71 96.7096 719.344 97.6125 717.862 98.9553V117.082C717.862 118.888 717.955 120.185 718.14 120.972C718.372 121.759 718.835 122.268 719.529 122.5C720.224 122.685 721.312 122.824 722.794 122.916C722.886 123.611 722.886 124.329 722.794 125.069C721.497 125.069 720.131 125.046 718.696 125C717.307 124.954 715.802 124.931 714.181 124.931C712.7 124.931 711.241 124.954 709.806 125C708.371 125.046 706.958 125.069 705.569 125.069C705.43 124.329 705.43 123.611 705.569 122.916C707.144 122.824 708.301 122.685 709.042 122.5C709.783 122.268 710.269 121.805 710.5 121.111C710.732 120.416 710.848 119.305 710.848 117.777V102.22C710.848 100.414 710.755 99.071 710.57 98.1913C710.431 97.3116 709.991 96.7096 709.25 96.3855C708.556 96.0151 707.352 95.7141 705.639 95.4826C705.5 94.8344 705.5 94.2325 705.639 93.6769C709.621 92.8897 713.279 91.8248 716.612 90.482L717.793 90.8988V96.1077C719.923 94.163 722.006 92.7971 724.044 92.01C726.081 91.2229 728.026 90.8293 729.878 90.8293C732.934 90.8293 735.272 91.7322 736.892 93.538C738.513 95.3437 739.323 97.9366 739.323 101.317V117.082C739.323 118.888 739.416 120.185 739.601 120.972C739.833 121.759 740.296 122.268 740.99 122.5C741.685 122.685 742.796 122.824 744.324 122.916C744.416 123.611 744.416 124.329 744.324 125.069C742.935 125.069 741.569 125.046 740.226 125C738.93 124.954 737.402 124.931 735.642 124.931C733.929 124.931 732.424 124.954 731.128 125C729.878 125.046 728.604 125.069 727.308 125.069Z" fill="#FFF1D2"/>
</svg>
