<svg xmlns="http://www.w3.org/2000/svg" version="1.1" xmlns:xlink="http://www.w3.org/1999/xlink" xmlns:svgjs="http://svgjs.dev/svgjs" width="1291" height="921"><svg width="1291" height="921" xmlns="http://www.w3.org/2000/svg" xmlns:xlink="http://www.w3.org/1999/xlink" xml:space="preserve" overflow="hidden"><g transform="translate(856 82)"><path d="M-76.08 466.55-76.08 633.88 61.65 633.88C95.86 633.88 120.95 625.45 136.93 608.58 152.9 591.71 160.89 572.71 160.89 551.57 160.89 530.43 153.13 510.97 137.6 493.2 122.07 475.44 93.6 466.55 52.2 466.55ZM-656 464.77-523.811 464.77C-481.139 464.77-451.802 473.93-435.801 492.24-419.799 510.55-411.798 530.6-411.798 552.38-411.798 574.17-420.031 593.75-436.496 611.14-452.962 628.52-478.82 637.21-514.07 637.21L-656 637.21ZM-76.08 115.695-76.08 270.88 54.9 270.88C87.75 270.88 110.93 262.56 124.44 245.92 137.94 229.27 144.69 211.51 144.69 192.61 144.69 141.33 113.18 115.695 50.17 115.695ZM-656 103.216-525.898 103.216C-460.963 103.216-428.495 129.637-428.495 182.48-428.495 201.95-435.453 220.26-449.367 237.41-463.282 254.56-487.169 263.14-521.028 263.14L-656 263.14ZM-314.328-82 131.19-82C228.41-82 299.3-57.485 343.86-8.45502 388.42 40.575 410.7 96.577 410.7 159.55 410.7 205.43 397.76 246.93 371.87 284.04 345.99 321.15 307.4 346.68 256.09 360.62 375.36 389.41 435 460.93 435 575.18 435 643.55 413.96 704.62 371.87 758.37 329.79 812.12 239.88 839 102.16 839L-336.684 839-336.684 837.4-333.447 836.9C-267.84 823.92-221.49 800.11-194.38 765.49-151.01 710.1-129.33 647.18-129.33 576.72-129.33 458.98-190.79 385.28-313.7 355.61-260.82 341.24-221.05 314.94-194.38 276.69-167.71 238.45-154.38 195.69-154.38 148.41-154.38 83.515-177.34 25.805-223.25-24.721-246.21-49.984-275.96-68.931-312.482-81.562Z" fill="#6C837B" fill-rule="evenodd" data-darkreader-inline-fill="" style="--darkreader-inline-fill: var(--darkreader-background-6c837b, #5a6165);"></path></g></svg><style>@media (prefers-color-scheme: light) { :root { filter: none; } }
@media (prefers-color-scheme: dark) { :root { filter: none; } }
</style></svg>