<?xml version="1.0" encoding="UTF-8" standalone="yes"?>
<svg width="1859" height="1859" viewBox="0 0 1859 1859" fill="none" version="1.2" baseProfile="tiny-ps" xmlns="http://www.w3.org/2000/svg">
  <title>bimi-svg-tiny-12-ps</title>
  <path fill-rule="evenodd" d="M1053.92 1017.55V1184.88H1191.65C1225.86 1184.88 1250.95 1176.45 1266.93 1159.58C1282.9 1142.71 1290.89 1123.71 1290.89 1102.57C1290.89 1081.43 1283.13 1061.97 1267.6 1044.2C1252.07 1026.44 1223.6 1017.55 1182.2 1017.55H1053.92ZM474 1015.77H606.189C648.861 1015.77 678.198 1024.93 694.199 1043.24C710.201 1061.55 718.202 1081.6 718.202 1103.38C718.202 1125.17 709.969 1144.75 693.504 1162.14C677.038 1179.52 651.18 1188.21 615.93 1188.21H474V1015.77ZM1053.92 666.695V821.88H1184.9C1217.75 821.88 1240.93 813.56 1254.44 796.92C1267.94 780.27 1274.69 762.51 1274.69 743.61C1274.69 692.33 1243.18 666.695 1180.17 666.695H1053.92ZM474 654.216H604.102C669.037 654.216 701.505 680.637 701.505 733.48C701.505 752.95 694.547 771.26 680.633 788.41C666.718 805.56 642.831 814.14 608.972 814.14H474V654.216ZM815.672 469H1261.19C1358.41 469 1429.3 493.515 1473.86 542.545C1518.42 591.575 1540.7 647.577 1540.7 710.55C1540.7 756.43 1527.76 797.93 1501.87 835.04C1475.99 872.15 1437.4 897.68 1386.09 911.62C1505.36 940.41 1565 1011.93 1565 1126.18C1565 1194.55 1543.96 1255.62 1501.87 1309.37C1459.79 1363.12 1369.88 1390 1232.16 1390H793.316V1388.4L796.553 1387.9C862.16 1374.92 908.51 1351.11 935.62 1316.49C978.99 1261.1 1000.67 1198.18 1000.67 1127.72C1000.67 1009.98 939.21 936.28 816.3 906.61C869.18 892.24 908.95 865.94 935.62 827.69C962.29 789.45 975.62 746.69 975.62 699.41C975.62 634.515 952.66 576.805 906.75 526.279C883.79 501.016 854.04 482.069 817.518 469.438L815.672 469Z" fill="#6C837B"/>
</svg>
