<svg width="2833" height="1095" xmlns="http://www.w3.org/2000/svg" xmlns:xlink="http://www.w3.org/1999/xlink" xml:space="preserve" overflow="hidden"><g transform="translate(-885 -849)"><path d="M908.5 908.864C908.5 878.287 933.287 853.5 963.864 853.5L3658.14 853.5C3688.71 853.5 3713.5 878.287 3713.5 908.864L3713.5 1320.14C3713.5 1350.71 3688.71 1375.5 3658.14 1375.5L963.864 1375.5C933.287 1375.5 908.5 1350.71 908.5 1320.14Z" stroke="#CFFCFF" stroke-width="9.16667" stroke-linejoin="round" stroke-miterlimit="10" fill="#0F0F0F" fill-rule="evenodd"/><text fill="#CFFCFF" font-family="Atkinson Hyperlegible,Atkinson Hyperlegible_MSFontService,sans-serif" font-weight="400" font-size="92" transform="matrix(1 0 0 1 968 980)">#0F0F0F</text><path d="M911.5 1466.16C911.5 1438.73 933.733 1416.5 961.159 1416.5L1590.84 1416.5C1618.27 1416.5 1640.5 1438.73 1640.5 1466.16L1640.5 1889.84C1640.5 1917.27 1618.27 1939.5 1590.84 1939.5L961.159 1939.5C933.733 1939.5 911.5 1917.27 911.5 1889.84Z" stroke="#EE2852" stroke-width="9.16667" stroke-linejoin="round" stroke-miterlimit="10" fill="#EE2852" fill-rule="evenodd"/><path d="M1679.5 1457.08C1679.5 1434.67 1697.67 1416.5 1720.08 1416.5L2367.92 1416.5C2390.33 1416.5 2408.5 1434.67 2408.5 1457.08L2408.5 1898.92C2408.5 1921.33 2390.33 1939.5 2367.92 1939.5L1720.08 1939.5C1697.67 1939.5 1679.5 1921.33 1679.5 1898.92Z" stroke="#1256D0" stroke-width="9.16667" stroke-linejoin="round" stroke-miterlimit="10" fill="#1256D0" fill-rule="evenodd"/><path d="M2447.5 1462.53C2447.5 1437.11 2468.11 1416.5 2493.53 1416.5L3130.47 1416.5C3155.89 1416.5 3176.5 1437.11 3176.5 1462.53L3176.5 1893.47C3176.5 1918.89 3155.89 1939.5 3130.47 1939.5L2493.53 1939.5C2468.11 1939.5 2447.5 1918.89 2447.5 1893.47Z" stroke="#CFFCFF" stroke-width="9.16667" stroke-linejoin="round" stroke-miterlimit="10" fill="#CFFCFF" fill-rule="evenodd"/><path d="M3218.5 1462.96C3218.5 1437.3 3239.3 1416.5 3264.96 1416.5L3667.04 1416.5C3692.7 1416.5 3713.5 1437.3 3713.5 1462.96L3713.5 1893.04C3713.5 1918.7 3692.7 1939.5 3667.04 1939.5L3264.96 1939.5C3239.3 1939.5 3218.5 1918.7 3218.5 1893.04Z" stroke="#FFFFFF" stroke-width="9.16667" stroke-linejoin="round" stroke-miterlimit="10" fill="#FFFFFF" fill-rule="evenodd"/><text fill="#0F0F0F" font-family="Atkinson Hyperlegible,Atkinson Hyperlegible_MSFontService,sans-serif" font-weight="400" font-size="92" transform="matrix(1 0 0 1 3250.5 1530)">#FFFFFF</text><text fill="#FFFFFF" font-family="Atkinson Hyperlegible,Atkinson Hyperlegible_MSFontService,sans-serif" font-weight="400" font-size="92" transform="matrix(1 0 0 1 940.5 1530)">#EE2852</text><text fill="#FFFFFF" font-family="Atkinson Hyperlegible,Atkinson Hyperlegible_MSFontService,sans-serif" font-weight="400" font-size="92" transform="matrix(1 0 0 1 1712.15 1530)">#1256D0</text><text fill="#0F0F0F" font-family="Atkinson Hyperlegible,Atkinson Hyperlegible_MSFontService,sans-serif" font-weight="400" font-size="92" transform="matrix(1 0 0 1 2483.81 1530)">#CFFCFF</text><path d="M935 1300.5C935 1277.58 953.58 1259 976.5 1259 999.42 1259 1018 1277.58 1018 1300.5 1018 1323.42 999.42 1342 976.5 1342 953.58 1342 935 1323.42 935 1300.5Z" fill="#FFFFFF" fill-rule="evenodd"/><path d="M1045 1300.5C1045 1277.58 1063.58 1259 1086.5 1259 1109.42 1259 1128 1277.58 1128 1300.5 1128 1323.42 1109.42 1342 1086.5 1342 1063.58 1342 1045 1323.42 1045 1300.5Z" fill="#CFFCFF" fill-rule="evenodd"/><path d="M1155 1300.5C1155 1277.58 1173.58 1259 1196.5 1259 1219.42 1259 1238 1277.58 1238 1300.5 1238 1323.42 1219.42 1342 1196.5 1342 1173.58 1342 1155 1323.42 1155 1300.5Z" fill="#1256D0" fill-rule="evenodd"/><path d="M1265 1300.5C1265 1277.58 1283.58 1259 1306.5 1259 1329.42 1259 1348 1277.58 1348 1300.5 1348 1323.42 1329.42 1342 1306.5 1342 1283.58 1342 1265 1323.42 1265 1300.5Z" fill="#EE2852" fill-rule="evenodd"/><path d="M935 1862.5C935 1839.58 953.58 1821 976.5 1821 999.42 1821 1018 1839.58 1018 1862.5 1018 1885.42 999.42 1904 976.5 1904 953.58 1904 935 1885.42 935 1862.5Z" fill="#FFFFFF" fill-rule="evenodd"/><path d="M1045 1862.5C1045 1839.58 1063.58 1821 1086.5 1821 1109.42 1821 1128 1839.58 1128 1862.5 1128 1885.42 1109.42 1904 1086.5 1904 1063.58 1904 1045 1885.42 1045 1862.5Z" fill="#CFFCFF" fill-rule="evenodd"/><path d="M1705 1862.5C1705 1839.58 1723.58 1821 1746.5 1821 1769.42 1821 1788 1839.58 1788 1862.5 1788 1885.42 1769.42 1904 1746.5 1904 1723.58 1904 1705 1885.42 1705 1862.5Z" fill="#FFFFFF" fill-rule="evenodd"/><path d="M1815 1862.5C1815 1839.58 1833.58 1821 1856.5 1821 1879.42 1821 1898 1839.58 1898 1862.5 1898 1885.42 1879.42 1904 1856.5 1904 1833.58 1904 1815 1885.42 1815 1862.5Z" fill="#CFFCFF" fill-rule="evenodd"/><path d="M2475 1862.5C2475 1839.58 2493.58 1821 2516.5 1821 2539.42 1821 2558 1839.58 2558 1862.5 2558 1885.42 2539.42 1904 2516.5 1904 2493.58 1904 2475 1885.42 2475 1862.5Z" fill="#0F0F0F" fill-rule="evenodd"/><path d="M2585 1862.5C2585 1839.58 2603.58 1821 2626.5 1821 2649.42 1821 2668 1839.58 2668 1862.5 2668 1885.42 2649.42 1904 2626.5 1904 2603.58 1904 2585 1885.42 2585 1862.5Z" fill="#1256D0" fill-rule="evenodd"/><path d="M3245 1862.5C3245 1839.58 3263.58 1821 3286.5 1821 3309.42 1821 3328 1839.58 3328 1862.5 3328 1885.42 3309.42 1904 3286.5 1904 3263.58 1904 3245 1885.42 3245 1862.5Z" fill="#0F0F0F" fill-rule="evenodd"/><path d="M3355 1862.5C3355 1839.58 3373.58 1821 3396.5 1821 3419.42 1821 3438 1839.58 3438 1862.5 3438 1885.42 3419.42 1904 3396.5 1904 3373.58 1904 3355 1885.42 3355 1862.5Z" fill="#1256D0" fill-rule="evenodd"/><path d="M3465 1862.5C3465 1839.58 3483.58 1821 3506.5 1821 3529.42 1821 3548 1839.58 3548 1862.5 3548 1885.42 3529.42 1904 3506.5 1904 3483.58 1904 3465 1885.42 3465 1862.5Z" fill="#EE2852" fill-rule="evenodd"/></g></svg>