<svg width="4242" height="3175" xmlns="http://www.w3.org/2000/svg" xmlns:xlink="http://www.w3.org/1999/xlink" xml:space="preserve" overflow="hidden"><g transform="translate(-155 111)"><text fill="#CFFCFF" font-family="SF Movie Poster,SF Movie Poster_MSFontService,sans-serif" font-weight="400" font-size="752" transform="matrix(1 0 0 1 606.49 854)">GREAT MINDS THINK ALIKE</text><path d="M3080.5 1009.5C3080.5 962.004 3119 923.5 3166.5 923.5L3874.5 923.5C3922 923.5 3960.5 962.004 3960.5 1009.5L3960.5 1009.5C3960.5 1057 3922 1095.5 3874.5 1095.5L3166.5 1095.5C3119 1095.5 3080.5 1057 3080.5 1009.5Z" stroke="#EE2852" stroke-width="3.4375" stroke-linejoin="round" stroke-miterlimit="10" fill="none" fill-rule="evenodd"/><text fill="#FFFFFF" font-family="Atkinson Hyperlegible,Atkinson Hyperlegible_MSFontService,sans-serif" font-weight="400" font-size="73" transform="matrix(1 0 0 1 3153.05 1032)">SF Movie Poster </text><text fill="#FFFFFF" font-family="Atkinson Hyperlegible,Atkinson Hyperlegible_MSFontService,sans-serif" font-weight="400" font-size="73" transform="matrix(1 0 0 1 3699.04 1032)">-</text><text fill="#FFFFFF" font-family="Atkinson Hyperlegible,Atkinson Hyperlegible_MSFontService,sans-serif" font-weight="400" font-size="73" transform="matrix(1 0 0 1 3746.59 1032)">logo</text><text fill="#CFFCFF" font-family="Bebas Neue,Bebas Neue_MSFontService,sans-serif" font-weight="400" font-size="422" transform="matrix(1 0 0 1 608.729 1677)">GREAT MINDS THINK ALIKE</text><path d="M3080.5 1844.5C3080.5 1797 3119 1758.5 3166.5 1758.5L3874.5 1758.5C3922 1758.5 3960.5 1797 3960.5 1844.5L3960.5 1844.5C3960.5 1892 3922 1930.5 3874.5 1930.5L3166.5 1930.5C3119 1930.5 3080.5 1892 3080.5 1844.5Z" stroke="#EE2852" stroke-width="3.4375" stroke-linejoin="round" stroke-miterlimit="10" fill="none" fill-rule="evenodd"/><text fill="#FFFFFF" font-family="Atkinson Hyperlegible,Atkinson Hyperlegible_MSFontService,sans-serif" font-weight="400" font-size="73" transform="matrix(1 0 0 1 3143.88 1867)">Bebas</text><text fill="#FFFFFF" font-family="Atkinson Hyperlegible,Atkinson Hyperlegible_MSFontService,sans-serif" font-weight="400" font-size="73" transform="matrix(1 0 0 1 3363.31 1867)">Neue </text><text fill="#FFFFFF" font-family="Atkinson Hyperlegible,Atkinson Hyperlegible_MSFontService,sans-serif" font-weight="400" font-size="73" transform="matrix(1 0 0 1 3552.94 1867)">-</text><text fill="#FFFFFF" font-family="Atkinson Hyperlegible,Atkinson Hyperlegible_MSFontService,sans-serif" font-weight="400" font-size="73" transform="matrix(1 0 0 1 3600.49 1867)">headings</text><text fill="#CFFCFF" font-family="Sequel100Black-65,Sequel100Black-65_MSFontService,sans-serif" font-weight="400" font-stretch="extra-expanded" font-size="186" transform="matrix(1 0 0 1 576.073 2307)">GRE</text><text fill="#CFFCFF" font-family="Sequel100Black-65,Sequel100Black-65_MSFontService,sans-serif" font-weight="400" font-stretch="extra-expanded" font-size="186" transform="matrix(1 0 0 1 1102.58 2307)">A</text><text fill="#CFFCFF" font-family="Sequel100Black-65,Sequel100Black-65_MSFontService,sans-serif" font-weight="400" font-stretch="extra-expanded" font-size="186" transform="matrix(1 0 0 1 1270.45 2307)">T MINDS THINK ALIKE</text><path d="M2805.5 2447.5C2805.5 2400 2844 2361.5 2891.5 2361.5L3874.5 2361.5C3922 2361.5 3960.5 2400 3960.5 2447.5L3960.5 2447.5C3960.5 2495 3922 2533.5 3874.5 2533.5L2891.5 2533.5C2844 2533.5 2805.5 2495 2805.5 2447.5Z" stroke="#EE2852" stroke-width="3.4375" stroke-linejoin="round" stroke-miterlimit="10" fill="none" fill-rule="evenodd"/><text fill="#FFFFFF" font-family="Atkinson Hyperlegible,Atkinson Hyperlegible_MSFontService,sans-serif" font-weight="400" font-size="73" transform="matrix(1 0 0 1 2874.32 2470)">Sequel100 black </text><text fill="#FFFFFF" font-family="Atkinson Hyperlegible,Atkinson Hyperlegible_MSFontService,sans-serif" font-weight="400" font-size="73" transform="matrix(1 0 0 1 3432.34 2470)">-</text><text fill="#FFFFFF" font-family="Atkinson Hyperlegible,Atkinson Hyperlegible_MSFontService,sans-serif" font-weight="400" font-size="73" transform="matrix(1 0 0 1 3479.9 2470)">subheadings</text><text fill="#CFFCFF" font-family="Atkinson Hyperlegible,Atkinson Hyperlegible_MSFontService,sans-serif" font-weight="400" font-size="108" transform="matrix(1 0 0 1 610.448 2817)">Small minds discuss people, average minds events, great minds ideas</text><path d="M2860.5 2976C2860.5 2928.78 2898.78 2890.5 2946 2890.5L3875 2890.5C3922.22 2890.5 3960.5 2928.78 3960.5 2976L3960.5 2976C3960.5 3023.22 3922.22 3061.5 3875 3061.5L2946 3061.5C2898.78 3061.5 2860.5 3023.22 2860.5 2976Z" stroke="#EE2852" stroke-width="3.4375" stroke-linejoin="round" stroke-miterlimit="10" fill="none" fill-rule="evenodd"/><text fill="#FFFFFF" font-family="Atkinson Hyperlegible,Atkinson Hyperlegible_MSFontService,sans-serif" font-weight="400" font-size="73" transform="matrix(1 0 0 1 2944.79 2998)">Atkinson Hyperlegible </text><text fill="#FFFFFF" font-family="Atkinson Hyperlegible,Atkinson Hyperlegible_MSFontService,sans-serif" font-weight="400" font-size="73" transform="matrix(1 0 0 1 3672.97 2998)">-</text><text fill="#FFFFFF" font-family="Atkinson Hyperlegible,Atkinson Hyperlegible_MSFontService,sans-serif" font-weight="400" font-size="73" transform="matrix(1 0 0 1 3720.52 2998)">body</text></g></svg>