<svg width="2299" height="617" xmlns="http://www.w3.org/2000/svg" xmlns:xlink="http://www.w3.org/1999/xlink" xml:space="preserve" overflow="hidden"><defs><clipPath id="clip0"><rect x="5867" y="1458" width="2299" height="617"/></clipPath></defs><g clip-path="url(#clip0)" transform="translate(-5867 -1458)"><path d="M6024.26 1742.8C6026.49 1742.3 6029.93 1745.91 6038.6 1756.8 6044.49 1764.05 6053.33 1772.21 6057.86 1774.93L6066.47 1779.69 6071.68 1773.12C6078.48 1764.73 6084.6 1767 6078.7 1775.61 6075.3 1781.05 6075.3 1781.73 6078.7 1783.55 6084.37 1786.72 6083.01 1789.89 6075.76 1789.89 6070.09 1789.89 6068.73 1791.48 6064.43 1801.23 6056.04 1820.5 6054.46 1836.14 6054.46 1890.78 6054.69 1947.91 6057.86 2001.86 6063.52 2040.4 6068.28 2073.05 6068.28 2074.41 6064.2 2074.41 6061.71 2074.41 6059.9 2068.74 6056.95 2051.74 6050.38 2011.61 6047.43 1964.91 6047.43 1893.95L6047.21 1824.35 6035.65 1820.73C6023.19 1816.87 5996.22 1800.55 5996.22 1796.92 5996.22 1791.48 6001.66 1792.39 6011.86 1800.1 6021.15 1806.9 6047.66 1818.46 6049.7 1816.65 6049.93 1816.19 6052.19 1810.75 6054.69 1804.63 6057.18 1798.28 6059.67 1791.71 6060.58 1789.67 6061.71 1787.17 6059.22 1784.23 6051.29 1779.47 6039.28 1771.98 6019.79 1748.41 6022.28 1744.55 6022.91 1743.59 6023.52 1742.97 6024.26 1742.8ZM6109.92 1574.23 6109.01 1589.19C6108.33 1603.93 6108.33 1604.15 6114.9 1606.42 6129.86 1611.63 6138.01 1605.51 6135.52 1591.23 6133.48 1578.76 6131.9 1577.17 6120.34 1575.59ZM6081.61 1499.94C6080.93 1499.94 6079.8 1501.53 6079.12 1503.57 6075.95 1511.5 6094.53 1522.38 6106.08 1519.44 6112.65 1517.85 6118.09 1509.46 6113.56 1507.87 6109.71 1506.51 6082.97 1499.94 6081.61 1499.94ZM6022.54 1475.1C6019.93 1475.08 6016.93 1475.17 6013.47 1475.2 6004.63 1475.2 5995.34 1476.1 5992.85 1477.24 5990.13 1478.14 5985.37 1482.9 5981.98 1487.89L5975.86 1496.51 5980.39 1521.44C5982.66 1535.27 5985.37 1562.02 5986.28 1581.07 5987.41 1607.36 5988.55 1616.2 5991.27 1618.25 5993.08 1619.83 6001.92 1621.42 6010.75 1621.87 6024.35 1622.55 6027.75 1622.1 6032.5 1618.25L6038.17 1613.71 6038.85 1548.19C6039.64 1480.55 6040.78 1475.22 6022.54 1475.1ZM6136.41 1468.22C6127.57 1468.22 6124.85 1469.13 6122.14 1473.21 6120.55 1476.16 6118.51 1483.18 6117.6 1489.08L6116.47 1499.73 6125.99 1500.87C6131.2 1501.55 6145.02 1502.68 6156.58 1503.36 6177.42 1504.72 6177.42 1504.72 6177.42 1499.28 6177.42 1484.54 6155.9 1468.22 6136.41 1468.22ZM6074.6 1465.91C6065.76 1465.91 6056.7 1467.04 6054.66 1468.17 6047.18 1472.71 6046.05 1483.82 6046.73 1546.61 6047.41 1612.58 6047.64 1613.94 6059.19 1616.21 6068.71 1618.25 6092.73 1613.49 6097.03 1608.73 6099.53 1606.01 6101.11 1598.75 6102.02 1587.87L6103.15 1571.32 6092.95 1566.34C6080.95 1560.44 6072.79 1550.69 6067.8 1535.5 6063.04 1521 6063.27 1514.65 6069.16 1504.22 6075.05 1493.56 6080.72 1491.75 6095.9 1495.38 6102.25 1496.97 6107.91 1497.65 6108.36 1497.19 6110.86 1494.7 6104.28 1479.74 6097.94 1473.16 6091.14 1466.36 6090.01 1465.91 6074.6 1465.91ZM6068.17 1458.05C6072 1457.92 6076.32 1458.06 6081.2 1458.45 6092.75 1459.36 6095.92 1460.49 6102.5 1466.84L6110.2 1474.55 6116.54 1467.75C6121.98 1461.86 6124.25 1461.18 6136.26 1461.18 6143.73 1461.18 6153.48 1462.76 6157.78 1464.58 6169.57 1469.56 6181.35 1482.26 6184.29 1493.37 6186.11 1499.49 6190.19 1505.84 6196.98 1511.96 6206.95 1521.02 6207.18 1521.7 6215.79 1557.52 6220.78 1577.47 6226.89 1604.22 6229.61 1617.15 6233.92 1638.91 6233.92 1641.18 6230.75 1652.29 6225.53 1670.2 6215.79 1684.02 6184.97 1717.8 6169.79 1734.35 6147.13 1760.65 6134.45 1776.29 6109.52 1807.35 6105.89 1815.06 6099.55 1853.37 6091.17 1902.79 6088.45 1945.87 6089.81 2010.25 6090.94 2067.15 6090.03 2080.3 6085.73 2073.27 6085.05 2071.91 6083.24 2050.83 6081.88 2026.12 6077.34 1946.77 6088.9 1835.01 6104.76 1803.95 6110.43 1792.61 6158.92 1733.67 6186.79 1703.97 6209.9 1679.49 6221.68 1661.13 6224.17 1645.48 6225.76 1635.28 6224.17 1626.44 6209.9 1567.27 6200.38 1527.15 6199.48 1524.43 6192 1517.85 6184.97 1511.73 6182.71 1511.05 6168.89 1511.05 6160.5 1511.05 6146.91 1510.37 6138.75 1509.69 6124.02 1508.1 6123.79 1508.33 6122.21 1514.22 6118.81 1527.83 6095.7 1531.23 6080.29 1520.34L6073.27 1515.36 6073.27 1522.84C6073.27 1534.17 6082.1 1549.82 6092.53 1556.84 6104.31 1564.55 6116.54 1567.73 6136.71 1567.73 6148.72 1567.73 6152.8 1568.41 6152.12 1570.45 6151.44 1572.03 6148.95 1573.62 6146.23 1574.07 6142.6 1574.53 6141.24 1576.34 6141.24 1580.42 6141.24 1585.18 6142.15 1585.86 6150.08 1585.86 6157.33 1585.86 6160.96 1584.05 6170.25 1575.66 6177.72 1569.09 6182.26 1566.37 6183.16 1567.95 6187.24 1574.3 6166.62 1591.76 6152.12 1594.02 6145.09 1595.16 6143.51 1596.52 6143.51 1600.82 6143.51 1605.58 6144.19 1605.81 6150.76 1603.77 6160.96 1601.05 6163.9 1601.28 6163.9 1604.9 6163.9 1608.76 6152.35 1613.07 6142.15 1613.07 6137.84 1613.07 6134.45 1614.2 6134.45 1615.33 6134.45 1616.69 6137.62 1623.27 6141.24 1629.84 6145.77 1637.55 6147.36 1642.76 6145.77 1643.67 6142.15 1645.94 6139.2 1642.99 6132.18 1628.94 6125.83 1616.47 6125.15 1615.79 6115.18 1614.2 6107.25 1613.07 6103.63 1613.52 6100.91 1616.01 6098.64 1618.05 6094.11 1620.32 6090.26 1621 6078.93 1623.72 6045.4 1658.63 6032.03 1681.53 6025.68 1692.64 6019.79 1701.48 6018.66 1701.48 6008.91 1701.48 6027.49 1668.38 6051.51 1643.22 6068.05 1625.76 6068.96 1624.4 6063.3 1624.4 6059.9 1624.4 6054.01 1622.81 6050.15 1620.77 6043.58 1617.37 6042.9 1617.37 6040.86 1621 6036.78 1628.26 6024.32 1631.66 6006.87 1629.84 5993.05 1628.48 5989.65 1627.35 5984.67 1621.68 5979.91 1616.69 5976.51 1615.33 5969.03 1615.33 5958.84 1615.33 5929.61 1622.13 5916.24 1627.8 5906.04 1632.11 5901.06 1632.11 5901.06 1628.03 5901.06 1625.99 5907.85 1622.59 5919.18 1618.73L5937.31 1612.61 5930.06 1604C5923.26 1596.06 5921.68 1595.38 5908.08 1594.25 5890.86 1592.89 5884.74 1590.85 5885.88 1587.22 5886.78 1584.5 5888.82 1584.5 5909.44 1587L5923.72 1588.81 5923.72 1575.21C5923.72 1562.28 5923.26 1561.38 5917.14 1558.66 5907.63 1554.8 5899.47 1545.74 5902.87 1542.33 5904.68 1540.52 5907.17 1541.43 5912.39 1545.96 5923.04 1554.8 5924.62 1553.67 5922.81 1539.39 5921.68 1529.41 5922.13 1526.92 5924.62 1526.92 5929.83 1526.92 5931.19 1534.85 5931.65 1565.46 5931.87 1581.1 5932.78 1595.38 5933.69 1597.65 5936.18 1603.32 5948.41 1607.4 5963.37 1607.4L5976.96 1607.4 5977.64 1584.73C5978.32 1562.74 5975.83 1535.08 5970.85 1512.41L5968.58 1501.3 5955.67 1502.66C5940.71 1504.02 5934.82 1506.52 5915.56 1520.8 5903.1 1529.87 5900.6 1533.27 5888.82 1556.39 5874.09 1585.18 5873.19 1590.4 5877.94 1624.4 5879.3 1635.06 5881.57 1664.53 5882.93 1690.15 5886.33 1754.3 5894.94 1803.72 5905.14 1815.28 5908.08 1818.69 5911.25 1819.14 5926.89 1818.01 5948.64 1816.65 5971.75 1819.37 5973.11 1823.45 5973.79 1825.94 5966.77 1826.39 5936.63 1825.71L5899.24 1825.03 5896.3 1842.04C5894.26 1854.28 5893.35 1889.19 5893.35 1965.59 5893.13 2034.51 5892.22 2072.37 5890.86 2072.82 5889.5 2073.05 5887.92 2063.52 5887.23 2049.02 5884.97 2010.02 5885.2 1872.19 5887.69 1852.24 5892.67 1810.07 5892.67 1808.94 5889.05 1797.6 5882.7 1778.56 5876.13 1724.15 5873.87 1673.6 5872.73 1646.84 5870.69 1620.09 5869.11 1614.43 5864.35 1595.16 5867.29 1580.19 5881.57 1553.44 5895.39 1527.83 5902.19 1519.66 5920.32 1507.88 5934.14 1498.81 5944.34 1495.18 5956.12 1495.18 5963.6 1495.18 5966.31 1493.82 5972.66 1486.79 5976.96 1482.26 5980.36 1477.72 5980.36 1476.59 5980.36 1475.68 5983.76 1473.19 5987.84 1470.92 5997.36 1465.71 6029.99 1465.26 6035.88 1470.24 6039.5 1473.19 6040.41 1472.96 6044.94 1467.07 6049.53 1461.29 6056.67 1458.44 6068.17 1458.05Z" fill="#CFFCFF" fill-rule="evenodd"/><path d="M7753.43 1603.83 7716.07 1917.28 7791.23 1917.28ZM7056.98 1499.79 7056.98 1746.55 7094.79 1746.55C7106.94 1746.55 7116.58 1740.47 7123.69 1728.32 7129.92 1718.24 7133.03 1706.53 7133.03 1693.2L7133.03 1552.7C7133.03 1539.96 7129.92 1528.4 7123.69 1518.02 7116.58 1505.87 7106.94 1499.79 7094.79 1499.79ZM8037.02 1462 8166 1462 8166 1499.79 8075.27 1499.79 8075.27 1746.55 8150.88 1746.55 8150.88 1784.34 8075.27 1784.34 8075.27 2031.1 8166 2031.1 8166 2068.89 8037.02 2068.89ZM7733.41 1462 7772.99 1462 7849.05 2068.89 7809.46 2068.89 7795.68 1955.07 7712.06 1955.07 7698.72 2068.89 7659.14 2068.89ZM7524.89 1462 7653.86 1462 7653.86 1499.79 7563.13 1499.79 7563.13 1746.55 7638.74 1746.55 7638.74 1784.34 7563.13 1784.34 7563.13 2068.89 7524.89 2068.89ZM7194.92 1462 7323.9 1462 7323.9 1499.79 7233.17 1499.79 7233.17 1746.55 7308.77 1746.55 7308.77 1784.34 7233.17 1784.34 7233.17 2031.1 7323.9 2031.1 7323.9 2068.89 7194.92 2068.89ZM7019.18 1462 7094.79 1462C7117.62 1462 7136.44 1471.78 7151.27 1491.35 7164.31 1509.43 7170.84 1529.88 7170.84 1552.7L7170.84 1678.08C7170.84 1696.46 7166.09 1714.24 7156.61 1731.43 7147.12 1748.33 7134.07 1759.59 7117.47 1765.22 7134.07 1771.45 7147.12 1782.86 7156.61 1799.46 7166.09 1816.06 7170.84 1833.84 7170.84 1852.81L7170.84 2068.89 7133.03 2068.89 7133.03 1837.25C7133.03 1824.5 7129.92 1812.94 7123.69 1802.57 7116.58 1790.42 7106.94 1784.34 7094.79 1784.34L7056.98 1784.34 7056.98 2068.89 7019.18 2068.89ZM6843.88 1462 6881.69 1462 6881.69 1981.75C6881.69 1994.49 6884.65 2006.05 6890.58 2016.42 6897.7 2028.58 6907.33 2034.65 6919.49 2034.65 6931.65 2034.65 6941.28 2028.58 6948.4 2016.42 6954.63 2006.35 6957.74 1994.79 6957.74 1981.75L6957.74 1462 6995.54 1462 6995.54 1981.75C6995.54 2004.57 6989.02 2025.02 6975.97 2043.1 6961.15 2062.37 6942.32 2072 6919.49 2072 6896.96 2072 6878.28 2062.37 6863.45 2043.1 6850.41 2025.02 6843.88 2004.57 6843.88 1981.75ZM6676.43 1462 6828.09 1462 6828.09 1499.79 6771.17 1499.79 6771.17 2068.89 6733.36 2068.89 6733.36 1499.79 6676.43 1499.79ZM6510.48 1462 6548.28 1462 6548.28 1981.75C6548.28 1994.49 6551.25 2006.05 6557.18 2016.42 6564.29 2028.58 6573.93 2034.65 6586.09 2034.65 6598.24 2034.65 6607.88 2028.58 6615 2016.42 6621.22 2006.35 6624.33 1994.79 6624.33 1981.75L6624.33 1462 6662.14 1462 6662.14 1981.75C6662.14 2004.57 6655.62 2025.02 6642.57 2043.1 6627.74 2062.37 6608.92 2072 6586.09 2072 6563.55 2072 6544.87 2062.37 6530.05 2043.1 6517 2025.02 6510.48 2004.57 6510.48 1981.75ZM6370 1462 6498.98 1462 6498.98 1499.79 6408.25 1499.79 6408.25 1746.55 6483.86 1746.55 6483.86 1784.34 6408.25 1784.34 6408.25 2068.89 6370 2068.89ZM7940.33 1458C7963.46 1458 7982.28 1467.93 7996.81 1487.79 8009.86 1505.28 8016.38 1525.73 8016.38 1549.14L8016.38 1613.61 7978.58 1613.61 7978.58 1549.14C7978.58 1536.1 7975.46 1524.39 7969.24 1514.02 7962.12 1501.87 7952.48 1495.79 7940.33 1495.79 7928.17 1495.79 7918.53 1501.87 7911.42 1514.02 7905.49 1524.39 7902.52 1536.1 7902.52 1549.14L7902.52 1981.75C7902.52 1994.49 7905.49 2006.05 7911.42 2016.42 7918.53 2028.58 7928.17 2034.65 7940.33 2034.65 7952.48 2034.65 7962.12 2028.58 7969.24 2016.42 7975.46 2006.35 7978.58 1994.79 7978.58 1981.75L7978.58 1917.28 8016.38 1917.28 8016.38 1981.75C8016.38 2004.57 8009.86 2025.02 7996.81 2043.1 7981.99 2062.37 7963.16 2072 7940.33 2072 7917.79 2072 7899.11 2062.37 7884.29 2043.1 7871.24 2025.02 7864.72 2004.57 7864.72 1981.75L7864.72 1549.14C7864.72 1525.73 7871.24 1505.28 7884.29 1487.79 7898.82 1467.93 7917.5 1458 7940.33 1458Z" fill="#CFFCFF" fill-rule="evenodd"/></g></svg>