<svg width="493" height="493" xmlns="http://www.w3.org/2000/svg" xmlns:xlink="http://www.w3.org/1999/xlink" xml:space="preserve" overflow="hidden"><g transform="translate(-641 -777)"><path d="M903.054 1063.77 903.054 1139.35 965.29 1139.35C980.748 1139.35 992.086 1135.54 999.307 1127.92 1006.53 1120.3 1010.14 1111.72 1010.14 1102.17 1010.14 1092.62 1006.63 1083.83 999.612 1075.81 992.595 1067.78 979.731 1063.77 961.019 1063.77ZM641 1062.97 700.734 1062.97C720.016 1062.97 733.273 1067.1 740.504 1075.37 747.734 1083.64 751.35 1092.7 751.35 1102.54 751.35 1112.38 747.63 1121.23 740.189 1129.08 732.749 1136.93 721.064 1140.85 705.135 1140.85L641 1140.85ZM903.054 905.295 903.054 975.391 962.239 975.391C977.087 975.391 987.561 971.632 993.663 964.114 999.764 956.597 1002.82 948.571 1002.82 940.038 1002.82 916.876 988.578 905.295 960.104 905.295ZM641 899.659 699.79 899.659C729.133 899.659 743.805 911.593 743.805 935.461 743.805 944.255 740.661 952.525 734.373 960.272 728.085 968.019 717.291 971.892 701.991 971.892L641 971.892ZM795.394 816 996.714 816C1040.65 816 1072.68 827.073 1092.81 849.219 1112.95 871.365 1123.02 896.66 1123.02 925.105 1123.02 945.829 1117.17 964.571 1105.48 981.333 1093.78 998.095 1076.34 1009.63 1053.15 1015.92 1107.05 1028.93 1134 1061.23 1134 1112.84 1134 1143.72 1124.49 1171.3 1105.48 1195.58 1086.46 1219.86 1045.83 1232 983.595 1232L785.292 1232 785.292 1231.28 786.755 1231.05C816.401 1225.19 837.348 1214.44 849.595 1198.8 869.192 1173.78 878.991 1145.36 878.991 1113.53 878.991 1060.35 851.22 1027.06 795.678 1013.66 819.572 1007.17 837.544 995.289 849.595 978.016 861.647 960.743 867.673 941.428 867.673 920.072 867.673 890.76 857.298 864.694 836.548 841.872 826.174 830.461 812.734 821.903 796.228 816.198Z" fill="#6C837B" fill-rule="evenodd"/></g></svg>