<svg width="1291" height="921" xmlns="http://www.w3.org/2000/svg" xmlns:xlink="http://www.w3.org/1999/xlink" xml:space="preserve" overflow="hidden"><defs><clipPath id="clip0"><rect x="2668" y="777" width="1291" height="921"/></clipPath></defs><g clip-path="url(#clip0)" transform="translate(-2668 -777)"><path d="M3447.92 1325.55 3447.92 1492.88 3585.65 1492.88C3619.85 1492.88 3644.95 1484.45 3660.93 1467.58 3676.9 1450.71 3684.89 1431.71 3684.89 1410.57 3684.89 1389.43 3677.13 1369.97 3661.6 1352.2 3646.07 1334.44 3617.6 1325.55 3576.2 1325.55ZM2868 1323.77 3000.19 1323.77C3042.86 1323.77 3072.2 1332.93 3088.2 1351.24 3104.2 1369.55 3112.2 1389.6 3112.2 1411.38 3112.2 1433.17 3103.97 1452.75 3087.5 1470.14 3071.04 1487.52 3045.18 1496.21 3009.93 1496.21L2868 1496.21ZM3447.92 974.695 3447.92 1129.88 3578.9 1129.88C3611.75 1129.88 3634.93 1121.56 3648.44 1104.92 3661.94 1088.27 3668.69 1070.51 3668.69 1051.61 3668.69 1000.33 3637.18 974.695 3574.17 974.695ZM2868 962.216 2998.1 962.216C3063.04 962.216 3095.5 988.637 3095.5 1041.48 3095.5 1060.95 3088.55 1079.26 3074.63 1096.41 3060.72 1113.56 3036.83 1122.14 3002.97 1122.14L2868 1122.14ZM3209.67 777 3655.19 777C3752.41 777 3823.3 801.515 3867.86 850.545 3912.42 899.575 3934.7 955.577 3934.7 1018.55 3934.7 1064.43 3921.75 1105.93 3895.87 1143.04 3869.99 1180.15 3831.4 1205.68 3780.09 1219.62 3899.36 1248.41 3959 1319.93 3959 1434.18 3959 1502.55 3937.96 1563.62 3895.87 1617.37 3853.79 1671.12 3763.88 1698 3626.16 1698L3187.32 1698 3187.32 1696.4 3190.55 1695.9C3256.16 1682.92 3302.51 1659.11 3329.62 1624.49 3372.99 1569.1 3394.67 1506.18 3394.67 1435.72 3394.67 1317.98 3333.21 1244.28 3210.3 1214.61 3263.18 1200.24 3302.95 1173.94 3329.62 1135.69 3356.29 1097.45 3369.62 1054.69 3369.62 1007.41 3369.62 942.515 3346.66 884.805 3300.75 834.279 3277.79 809.016 3248.04 790.069 3211.52 777.438Z" fill="#F7F4ED" fill-rule="evenodd"/></g></svg>
