<svg width="2062" height="2063" xmlns="http://www.w3.org/2000/svg" xmlns:xlink="http://www.w3.org/1999/xlink" xml:space="preserve" overflow="hidden"><defs><clipPath id="clip0"><rect x="1169" y="206" width="2062" height="2063"/></clipPath></defs><g clip-path="url(#clip0)" transform="translate(-1169 -206)"><path d="M2200 206C2769.41 206 3231 667.818 3231 1237.5 3231 1807.18 2769.41 2269 2200 2269 1630.59 2269 1169 1807.18 1169 1237.5 1169 667.818 1630.59 206 2200 206Z" fill="#21468B" fill-rule="evenodd"/><path d="M2200 206C2769.41 206 3231 667.706 3231 1237.25 3231 1344.04 3214.77 1447.04 3184.65 1543.91L3171.08 1581 1228.92 1581 1215.35 1543.91C1185.23 1447.04 1169 1344.04 1169 1237.25 1169 667.706 1630.59 206 2200 206Z" fill="#FFFFFF" fill-rule="evenodd"/><path d="M2200 206C2627.02 206 2993.4 465.899 3149.9 836.299L3171 894 1229 894 1250.1 836.299C1406.6 465.899 1772.98 206 2200 206Z" fill="#AE1C28" fill-rule="evenodd"/></g></svg>